PathFileType	4	(X/Y/Z)	walk-thru1-5-TP.trc
DataRate	CameraRate	NumFrames	NumMarkers	Units	OrigDataRate	OrigDataStartFrame	OrigNumFrames
120.00	120.00	       5	60	mm	120.00	131	       521
Frame#	Time	Top.Head			Front.Head			Rear.Head			Jaw			C7			R.Clavicle			L.Clavicle			R.Shoulder			L.Shoulder			R.Scapula			L.Scapula			R.Scap.Inf			R.Biceps.Lateral			R.Elbow			R.Elbow.Medial			R.Forearm			R.Ulna			R.Radius			R.Wrist			R.Thumb.M1			R.Thumb.M2			R.Thumb.M3			R.Finger3.M1			R.Finger3.M2			R.Finger3.M3			L.Biceps.Lateral			L.Elbow			L.Elbow.Medial			L.Forearm			L.Ulna			L.Radius			L.Wrist			L.Thumb.M1			L.Thumb.M2			L.Thumb.M3			L.Finger3.M1			L.Finger3.M2			L.Finger3.M3			V.Sacral			R.ASIS			L.ASIS			R.Thigh			R.Thigh.Front			R.Knee			R.Knee.Medial			R.Shank			R.Ankle			R.Ankle.Medial			R.Heel			R.Toe			R.MedFoot			L.Thigh			L.Knee			L.Knee.Medial			L.Shank			L.Ankle			L.Ankle.Medial			L.Heel			L.Toe			L.MedFoot			V_mid_ASIS			V_R_Knee_JC			V_L_Knee_JC			V_R_Elbow_JC			V_L_Elbow_JC			V_R_Ankle_JC			V_L_Ankle_JC			V_R_Wrist_JC			V_L_Wrist_JC			V_R_ScaTrpz_1stMC_JC			V_R_1stMC_1stPP_JC			V_R_1stPP_1stDP_JC			V_R_LunCap_3rdMC_JC			V_R_3rdMC_3rdPP_JC			V_R_3rdPP_3rdMP_JC			V_R_3rdMP_3rdDP_JC			V_L_ScaTrpz_1stMC_JC			V_L_1stMC_1stPP_JC			V_L_1stPP_1stDP_JC			V_L_LunCap_3rdMC_JC			V_L_3rdMC_3rdPP_JC			V_L_3rdPP_3rdMP_JC			V_L_3rdMP_3rdPP_JC			V_ROOT_JC			V_R_Hip_JC			V_L_Hip_JC			V_R_GlenHum_JC			V_L_GlenHum_JC			V_ForeHead_Ctr			V_Vertex			V_Sagit_Lambdoid_Suture			V_R_FrontoTemp			V_L_FrontoTemporal			V_R_ParietalOccip			V_L_ParietalOcciptal			V_R_Temporal			V_L_Temporal			V_mid_FrontRearHead			V_mid_RLGlenHumCtrs			V_C7_vert			V_C1_vert			V_Mid_Hip			
		X1	Y1	Z1	X2	Y2	Z2	X3	Y3	Z3	X4	Y4	Z4	X5	Y5	Z5	X6	Y6	Z6	X7	Y7	Z7	X8	Y8	Z8	X9	Y9	Z9	X10	Y10	Z10	X11	Y11	Z11	X12	Y12	Z12	X13	Y13	Z13	X14	Y14	Z14	X15	Y15	Z15	X16	Y16	Z16	X17	Y17	Z17	X18	Y18	Z18	X19	Y19	Z19	X20	Y20	Z20	X21	Y21	Z21	X22	Y22	Z22	X23	Y23	Z23	X24	Y24	Z24	X25	Y25	Z25	X26	Y26	Z26	X27	Y27	Z27	X28	Y28	Z28	X29	Y29	Z29	X30	Y30	Z30	X31	Y31	Z31	X32	Y32	Z32	X33	Y33	Z33	X34	Y34	Z34	X35	Y35	Z35	X36	Y36	Z36	X37	Y37	Z37	X38	Y38	Z38	X39	Y39	Z39	X40	Y40	Z40	X41	Y41	Z41	X42	Y42	Z42	X43	Y43	Z43	X44	Y44	Z44	X45	Y45	Z45	X46	Y46	Z46	X47	Y47	Z47	X48	Y48	Z48	X49	Y49	Z49	X50	Y50	Z50	X51	Y51	Z51	X52	Y52	Z52	X53	Y53	Z53	X54	Y54	Z54	X55	Y55	Z55	X56	Y56	Z56	X57	Y57	Z57	X58	Y58	Z58	X59	Y59	Z59	X60	Y60	Z60	

131	1.083	952.42053	102.69193	1798.10022	849.16376	86.95760	1689.09644	1075.86633	101.45720	1695.26355	888.17596	85.35699	1521.75403	1085.51038	93.60806	1562.37085	981.17206	202.81061	1463.82031	980.43542	-25.05457	1475.01843	1018.84991	292.19815	1455.84180	1052.62036	-118.12954	1487.12891	1130.65076	181.87390	1474.51294	1138.11450	11.45150	1486.56042	1178.90540	191.31154	1388.44397	1065.17297	348.26382	1276.70313	1099.00330	362.48230	1123.29150	1120.52332	273.73398	1108.52600	1012.83807	305.00085	1012.21637	1040.89954	343.95651	909.66461	980.47253	280.11084	883.62146	981.46033	319.04678	835.66339	969.63025	273.50159	851.25714	933.34137	240.79430	807.30634	895.90271	237.65965	780.36969	938.13269	318.99835	766.41071	922.70972	276.83875	715.92847	937.45660	231.19633	693.46429	1083.86316	-187.66373	1343.79382	1110.33984	-238.65160	1171.85901	1157.11365	-173.81604	1155.98718	1050.68896	-215.68768	1061.98706	1106.33313	-242.86830	976.37927	1043.82288	-188.53799	920.52039	1051.94397	-227.01059	864.72833	1039.07227	-179.64343	853.95654	1047.83398	-147.66563	804.05243	1049.56702	-156.18990	741.74792	1041.62585	-243.49190	789.33423	1060.27185	-228.20392	733.63922	1087.96802	-212.23817	691.63928	1181.94824	75.54014	1088.06982	1074.03210	254.87828	1029.01758	1089.49072	-117.47450	1027.19409	961.23682	202.73225	631.90814	872.08490	117.34290	579.19189	918.31787	171.76344	510.28241	922.27899	59.35912	515.08722	900.33447	120.36246	330.44748	993.49390	141.58867	71.83479	956.90869	47.93768	98.37322	1047.79077	82.45103	47.70090	807.45642	104.96332	50.47813	877.98248	64.78494	75.16108	1035.94141	-140.89421	643.77557	1017.40527	-135.81209	496.06018	987.36731	-20.45282	485.99924	1122.10901	-76.82060	327.91278	1351.79602	-75.53270	206.96344	1291.57178	9.96136	209.89294	1385.67212	-11.04319	240.30917	1271.59265	-18.10682	58.99883	1276.00464	3.87497	108.67931																																																																																																																															
132	1.092	946.36481	102.93903	1797.49023	842.81580	89.06618	1689.24915	1069.92859	102.39161	1695.08215	882.54590	86.58965	1522.83838	1079.64917	95.46390	1562.46228	974.79486	202.55539	1463.22388	975.63879	-22.90389	1475.48462	1011.01227	292.71652	1455.71228	1047.01440	-117.11388	1487.40942	1124.57947	183.73492	1475.26160	1131.87268	13.99037	1486.48828	1171.91223	192.00809	1388.47388	1057.06104	349.60754	1276.95117	1091.11890	364.23004	1123.01245	1113.71399	275.86716	1108.66858	1005.60406	306.73358	1011.80322	1032.72302	345.33554	909.84753	973.09192	280.70996	884.25037	973.68677	318.54639	835.08203	961.97870	274.84247	850.09668	925.27271	240.53043	807.83435	888.32196	237.75963	781.29987	928.75507	320.48630	767.71484	913.02789	277.60135	716.69580	928.06439	232.95633	694.24640	1078.94385	-186.86682	1343.98584	1106.02063	-238.16660	1172.26233	1152.64417	-173.17815	1155.70789	1046.80835	-214.14580	1062.76184	1101.47156	-242.99686	976.65308	1037.89539	-190.12607	921.50476	1047.91504	-225.63632	864.90649	1034.28149	-178.89073	854.47400	1044.06458	-147.47679	803.72845	1044.10425	-155.77263	741.62305	1038.24695	-243.98479	790.14600	1056.01392	-226.46986	734.51062	1083.28455	-212.34306	691.05280	1176.51013	75.89697	1087.50122	1065.78101	255.24046	1030.14014	1083.96680	-116.89455	1027.65625	957.09985	204.02211	632.14325	868.85345	118.18427	578.31628	914.56610	172.13606	509.59158	919.27789	59.30013	515.00476	898.22266	121.07948	329.30426	993.25275	141.67500	71.84776	956.90869	47.93768	98.37322	1047.79077	82.45103	47.70090	807.40588	105.11515	50.43021	877.90295	64.87036	74.97620	1024.64612	-140.31296	644.91266	1004.42023	-136.53375	497.32465	975.56537	-19.78947	488.56082	1110.39929	-77.48074	330.56757	1340.95410	-77.22704	211.46210	1280.16125	9.78336	214.52972	1375.11475	-12.54965	245.33601	1259.82068	-20.33953	61.79621	1265.79297	2.75625	113.52463																																																																																																																															
133	1.100	940.76514	104.97752	1798.35461	836.01843	88.01575	1690.51685	1062.82605	103.09512	1696.10852	875.62512	86.25936	1522.47107	1074.43384	94.50759	1563.24512	968.31396	204.93227	1463.43994	969.18799	-23.75374	1474.99658	1004.42065	294.76389	1455.92346	1040.63879	-116.40030	1487.27661	1117.71619	184.41949	1475.25024	1126.71423	14.28381	1486.62830	1165.81921	193.35756	1388.54272	1050.75610	350.41534	1276.81335	1083.64856	364.75421	1123.67957	1107.56384	277.83292	1108.62451	997.64722	307.80341	1013.27087	1025.01123	347.37637	909.88550	965.31366	281.59113	884.47736	965.85858	320.58435	836.31207	953.09192	274.10287	851.26221	917.74353	240.41347	808.68451	879.96765	237.38654	782.19391	920.03796	318.73242	767.39221	905.63452	277.56818	716.94702	919.78241	232.35214	694.79773	1074.26001	-185.35011	1344.40845	1101.18286	-236.65807	1173.00818	1148.62317	-171.86353	1156.05310	1041.97461	-212.26866	1062.74451	1098.00684	-241.64575	977.40369	1034.19556	-188.20908	921.00293	1043.18970	-224.66553	865.42261	1029.97107	-177.89511	854.55359	1038.51465	-147.24944	803.75256	1039.04663	-156.15340	741.84210	1033.61792	-243.38095	790.46490	1051.23840	-226.30577	734.35779	1078.62720	-211.25948	692.16119	1170.10217	75.94393	1087.39709	1063.93921	256.73816	1028.58630	1077.72998	-115.56582	1028.53943	952.65814	204.30351	631.59357	865.69135	118.54776	577.23254	911.79749	172.92346	509.38995	915.23151	59.31534	514.68518	896.33258	122.21623	328.79999	992.35931	142.08650	71.58835	956.69775	47.78289	98.43409	1047.71094	82.35134	47.69724	807.13342	105.11450	50.04184	877.87817	64.82516	74.93023	1014.17023	-140.07779	645.61383	991.53809	-137.54988	499.89008	965.68488	-19.84455	489.50577	1098.27698	-78.06008	333.12103	1329.63782	-78.78999	214.60309	1269.87305	7.66490	217.63585	1364.87634	-15.12629	248.21353	1246.77429	-22.43604	64.04972	1254.02686	0.64797	117.27888																																																																																																																															
134	1.108	933.52057	106.13843	1799.08362	830.76019	89.10265	1690.33533	1057.07678	102.76888	1696.05457	870.35138	87.80648	1522.28369	1067.47827	96.70445	1563.66138	961.57782	204.21263	1463.17810	964.11761	-23.13654	1475.71960	997.20856	293.85349	1456.32861	1036.16895	-115.16238	1488.24353	1111.75366	185.61159	1476.22729	1121.13208	15.27338	1487.66650	1159.08691	194.63214	1388.63477	1042.09546	350.66382	1276.78174	1076.16101	366.60043	1123.41382	1101.00989	278.82623	1108.32898	989.58618	306.53525	1013.58710	1016.05298	347.49463	909.14069	957.07544	283.36990	884.83228	956.27563	320.74811	836.67676	945.57202	275.26617	852.43573	909.38660	243.05818	810.19312	871.91833	237.34508	782.60480	911.74786	320.81924	768.27087	896.94983	278.27924	718.29230	912.01074	232.05769	695.80035	1069.03259	-184.76505	1344.72974	1096.96765	-236.32573	1173.36841	1143.27307	-171.01183	1156.65027	1037.59729	-212.59470	1063.39319	1093.99329	-240.44182	977.89917	1030.38733	-186.84549	921.92072	1039.70544	-224.15869	865.67535	1025.10852	-177.15860	854.42834	1034.48340	-146.45035	804.24719	1035.27319	-155.77588	742.53656	1029.91260	-242.80476	790.70770	1046.70471	-225.86275	734.62531	1074.64026	-209.36736	691.92822	1163.47449	76.83555	1087.24158	1057.68616	257.91083	1027.83691	1072.51990	-114.44242	1028.77039	949.53961	204.72473	630.99359	861.28125	118.41508	577.00385	908.16254	173.21989	508.78049	911.73743	60.92926	514.41235	895.73010	122.42237	328.35828	992.33484	141.41905	71.47841	956.42511	47.86711	97.85036	1047.72986	82.42179	47.90931	807.16003	105.28198	49.88482	877.45844	64.91978	74.78790	1002.52368	-139.72052	647.08997	978.43817	-136.74719	501.64822	952.75116	-20.09493	491.18634	1086.80322	-77.35052	335.89087	1318.19299	-78.76631	217.35452	1258.02673	6.63839	220.73404	1353.48779	-15.48378	250.05571	1232.21985	-26.22614	67.70375	1240.78699	-2.36893	120.37088																																																																																																																															
135	1.117	928.86163	105.84924	1799.43433	824.15594	88.05396	1690.48303	1050.79102	104.89411	1696.84961	863.92694	86.61512	1521.90991	1061.99878	97.83650	1563.32471	956.61261	205.39471	1463.38696	958.97296	-22.81686	1476.03259	991.37177	295.09073	1456.42383	1030.33325	-113.60754	1488.56897	1106.29626	186.76236	1476.52393	1114.98450	16.61501	1487.64343	1153.61218	195.93866	1389.28711	1037.04016	351.21771	1276.94031	1068.16699	368.65918	1123.47314	1093.27869	280.79425	1108.53772	982.85010	307.47488	1013.26691	1008.30341	348.82565	910.11658	948.48987	283.42188	885.81366	948.23920	321.59955	836.27081	937.93170	275.96799	851.90417	903.30237	241.72691	810.50934	864.09479	237.04196	783.69562	902.79364	319.61710	768.88995	888.96765	277.01624	717.74200	904.17316	233.91830	695.74060	1064.29553	-183.56168	1344.70850	1092.51367	-235.27231	1173.33887	1140.06458	-170.02303	1157.19385	1033.54102	-211.44978	1063.53076	1090.34827	-237.87970	977.82574	1024.35242	-187.55951	921.73370	1035.05847	-223.84058	865.99933	1021.02441	-176.52150	854.74426	1029.13794	-145.72961	804.18530	1029.46924	-155.21692	742.54523	1025.93274	-241.57841	791.26807	1042.51025	-225.10092	735.15424	1069.66541	-208.62000	692.24866	1157.98230	77.75143	1086.74060	1048.51294	258.46240	1029.15332	1065.42200	-113.76371	1029.21265	945.70782	205.15421	630.99237	857.81213	119.33095	576.11334	905.58514	173.24046	508.16104	909.32617	60.82145	513.96869	893.44720	123.98759	327.59061	991.99780	141.19003	71.60585	956.30939	47.49242	97.87510	1047.72986	82.42179	47.90931	807.15125	105.33335	49.77694	877.15875	64.55984	74.61171	991.80151	-139.75647	648.36249	965.44183	-137.50598	503.10599	942.98083	-19.09518	494.83585	1074.53601	-76.60173	337.69553	1306.20520	-79.30153	219.90382	1247.22754	5.88241	222.72618	1341.74951	-15.37017	251.35480	1217.71301	-29.06022	70.64822	1227.64685	-5.10545	122.56925																																																																																																																															
